<svg width="20" height="18" viewBox="0 0 20 18" fill="none" xmlns="http://www.w3.org/2000/svg">
<path d="M18.166 7.8329H4.32352L8.56202 2.74624C8.97502 2.25157 8.90735 1.5154 8.41268 1.10357C7.91685 0.690568 7.18185 0.758235 6.77002 1.2529L0.936682 8.2529C0.891182 8.30774 0.867849 8.3719 0.834016 8.43257C0.806016 8.48157 0.772182 8.52357 0.751182 8.57724C0.698682 8.7114 0.667182 8.85257 0.667182 8.9949C0.667182 8.99607 0.666016 8.9984 0.666016 8.99957C0.666016 9.00074 0.667182 9.00307 0.667182 9.00424C0.667182 9.14657 0.698682 9.28773 0.751182 9.4219C0.772182 9.47557 0.806016 9.51757 0.834016 9.56657C0.867849 9.62724 0.891182 9.6914 0.936682 9.74624L6.77002 16.7462C7.00102 17.0227 7.33235 17.1662 7.66602 17.1662C7.92968 17.1662 8.19452 17.0776 8.41268 16.8956C8.90735 16.4837 8.97502 15.7476 8.56202 15.2529L4.32352 10.1662H18.166C18.81 10.1662 19.3327 9.64357 19.3327 8.99957C19.3327 8.35557 18.81 7.8329 18.166 7.8329Z" fill="#06283D"/>
</svg>
