<svg width="22" height="22" viewBox="0 0 22 22" fill="none" xmlns="http://www.w3.org/2000/svg">
<mask id="mask0_2107_46239" style="mask-type:alpha" maskUnits="userSpaceOnUse" x="0" y="0" width="22" height="22">
<rect width="22" height="22" fill="#D9D9D9"/>
</mask>
<g mask="url(#mask0_2107_46239)">
<path d="M8.70898 15.1247L15.1257 10.9997L8.70898 6.87467V15.1247ZM11.0007 20.1663C9.7326 20.1663 8.54093 19.9256 7.42565 19.444C6.31037 18.9631 5.34023 18.3101 4.51523 17.4851C3.69023 16.6601 3.03726 15.69 2.55632 14.5747C2.07476 13.4594 1.83398 12.2677 1.83398 10.9997C1.83398 9.73162 2.07476 8.53995 2.55632 7.42467C3.03726 6.3094 3.69023 5.33926 4.51523 4.51426C5.34023 3.68926 6.31037 3.03598 7.42565 2.55442C8.54093 2.07348 9.7326 1.83301 11.0007 1.83301C12.2687 1.83301 13.4604 2.07348 14.5757 2.55442C15.6909 3.03598 16.6611 3.68926 17.4861 4.51426C18.3111 5.33926 18.964 6.3094 19.445 7.42467C19.9265 8.53995 20.1673 9.73162 20.1673 10.9997C20.1673 12.2677 19.9265 13.4594 19.445 14.5747C18.964 15.69 18.3111 16.6601 17.4861 17.4851C16.6611 18.3101 15.6909 18.9631 14.5757 19.444C13.4604 19.9256 12.2687 20.1663 11.0007 20.1663ZM11.0007 18.333C13.0479 18.333 14.7819 17.6226 16.2027 16.2018C17.6236 14.7809 18.334 13.0469 18.334 10.9997C18.334 8.95245 17.6236 7.21842 16.2027 5.79759C14.7819 4.37676 13.0479 3.66634 11.0007 3.66634C8.95343 3.66634 7.2194 4.37676 5.79857 5.79759C4.37773 7.21842 3.66732 8.95245 3.66732 10.9997C3.66732 13.0469 4.37773 14.7809 5.79857 16.2018C7.2194 17.6226 8.95343 18.333 11.0007 18.333Z" fill="white"/>
</g>
</svg>
