<svg width="20" height="20" viewBox="0 0 20 20" fill="none" xmlns="http://www.w3.org/2000/svg">
<path fill-rule="evenodd" clip-rule="evenodd" d="M0 10.001C0 4.47798 4.477 0.000976562 10 0.000976562C15.523 0.000976562 20 4.47798 20 10.001C20 15.523 15.523 20.001 10 20.001C4.477 20.001 0 15.523 0 10.001ZM9.727 13.606L14.295 7.60598C14.63 7.16698 14.545 6.53998 14.106 6.20498C13.665 5.86998 13.038 5.95598 12.704 6.39498L8.92 11.364L7.287 9.27798C6.947 8.84198 6.317 8.76598 5.883 9.10698C5.448 9.44698 5.372 10.076 5.712 10.51L8.144 13.617C8.334 13.859 8.624 14.001 8.931 14.001H8.938C9.248 13.999 9.539 13.853 9.727 13.606Z" fill="#1363DF"/>
</svg>
