<svg width="21" height="19" viewBox="0 0 21 19" fill="none" xmlns="http://www.w3.org/2000/svg">
<path d="M13.25 0.25C12.8522 0.25 12.4706 0.408035 12.1893 0.68934C11.908 0.970644 11.75 1.35218 11.75 1.75V4.75C11.75 5.14782 11.908 5.52936 12.1893 5.81066C12.4706 6.09196 12.8522 6.25 13.25 6.25V8.5L15.95 6.25H19.25C19.6478 6.25 20.0294 6.09196 20.3107 5.81066C20.592 5.52936 20.75 5.14782 20.75 4.75V1.75C20.75 1.35218 20.592 0.970644 20.3107 0.68934C20.0294 0.408035 19.6478 0.25 19.25 0.25H13.25ZM6.5 4C5.70435 4 4.94129 4.31607 4.37868 4.87868C3.81607 5.44129 3.5 6.20435 3.5 7C3.5 7.79565 3.81607 8.55871 4.37868 9.12132C4.94129 9.68393 5.70435 10 6.5 10C7.29565 10 8.05871 9.68393 8.62132 9.12132C9.18393 8.55871 9.5 7.79565 9.5 7C9.5 6.20435 9.18393 5.44129 8.62132 4.87868C8.05871 4.31607 7.29565 4 6.5 4ZM10.25 11.5H2.75C2.15326 11.5 1.58097 11.7371 1.15901 12.159C0.737053 12.581 0.5 13.1533 0.5 13.75C0.5 15.424 1.1885 16.765 2.318 17.6725C3.4295 18.565 4.9205 19 6.5 19C8.0795 19 9.5705 18.565 10.682 17.6725C11.81 16.765 12.5 15.424 12.5 13.75C12.5 13.1533 12.2629 12.581 11.841 12.159C11.419 11.7371 10.8467 11.5 10.25 11.5Z" fill="#F1F0C0"/>
</svg>
