<svg width="24" height="24" viewBox="0 0 24 24" fill="none" xmlns="http://www.w3.org/2000/svg">
<path fill-rule="evenodd" clip-rule="evenodd" d="M5.744 3H18.256C19.769 3 21 4.232 21 5.744V18.256C21 19.769 19.769 21 18.256 21H5.744C4.231 21 3 19.769 3 18.256V5.744C3 4.232 4.231 3 5.744 3ZM7 5H5.744C5.334 5 5 5.334 5 5.744V7H7V5ZM5 18.256V17H7V19H5.744C5.334 19 5 18.666 5 18.256ZM19 18.256C19 18.666 18.666 19 18.256 19H17V17H19V18.256ZM19 5.744V7H17V5H18.256C18.666 5 19 5.334 19 5.744ZM19 15H17V13H19V15ZM17 11H19V9H17V11ZM7 15H5V13H7V15ZM5 11H7V9H5V11Z" fill="#5E849C"/>
<mask id="mask0_2065_31200" style="mask-type:alpha" maskUnits="userSpaceOnUse" x="3" y="3" width="18" height="18">
<path fill-rule="evenodd" clip-rule="evenodd" d="M5.744 3H18.256C19.769 3 21 4.232 21 5.744V18.256C21 19.769 19.769 21 18.256 21H5.744C4.231 21 3 19.769 3 18.256V5.744C3 4.232 4.231 3 5.744 3ZM7 5H5.744C5.334 5 5 5.334 5 5.744V7H7V5ZM5 18.256V17H7V19H5.744C5.334 19 5 18.666 5 18.256ZM19 18.256C19 18.666 18.666 19 18.256 19H17V17H19V18.256ZM19 5.744V7H17V5H18.256C18.666 5 19 5.334 19 5.744ZM19 15H17V13H19V15ZM17 11H19V9H17V11ZM7 15H5V13H7V15ZM5 11H7V9H5V11Z" fill="white"/>
</mask>
<g mask="url(#mask0_2065_31200)">
</g>
</svg>
