<svg width="19" height="20" viewBox="0 0 19 20" fill="none" xmlns="http://www.w3.org/2000/svg">
<path d="M18.2633 10.509C18.657 9.98869 18.875 9.35119 18.875 8.68791C18.875 7.63556 18.2867 6.63947 17.3398 6.084C17.0961 5.94102 16.8185 5.86577 16.5359 5.86603H10.9156L11.0563 2.98556C11.0891 2.28947 10.843 1.62853 10.3648 1.12463C10.1302 0.876255 9.84712 0.678642 9.53308 0.543998C9.21905 0.409355 8.88074 0.340543 8.53906 0.341814C7.32031 0.341814 6.24219 1.16213 5.91875 2.33635L3.90547 9.62541H3.89844V19.6567H14.968C15.1836 19.6567 15.3945 19.6145 15.5891 19.5301C16.7047 19.0543 17.4242 17.9645 17.4242 16.7551C17.4242 16.4598 17.382 16.1692 17.2977 15.8879C17.6914 15.3676 17.9094 14.7301 17.9094 14.0668C17.9094 13.7715 17.8672 13.4809 17.7828 13.1996C18.1766 12.6793 18.3945 12.0418 18.3945 11.3785C18.3898 11.0832 18.3477 10.7903 18.2633 10.509ZM0.125 10.3754V18.9067C0.125 19.3215 0.460156 19.6567 0.875 19.6567H2.39844V9.62541H0.875C0.460156 9.62541 0.125 9.96056 0.125 10.3754Z" fill="#B1BCE6"/>
</svg>
