<svg width="22" height="14" viewBox="0 0 22 14" fill="none" xmlns="http://www.w3.org/2000/svg">
<path fill-rule="evenodd" clip-rule="evenodd" d="M1.59133 0H20.4085C21.0093 0 21.5005 0.491167 21.5005 1.092V1.24133C21.5005 1.84217 21.0093 2.33333 20.4085 2.33333H1.59133C0.9905 2.33333 0.5005 1.84217 0.5005 1.24133V1.092C0.5005 0.491167 0.9905 0 1.59133 0ZM2.83333 7C2.83333 7.64517 2.31067 8.16667 1.66667 8.16667C1.02267 8.16667 0.5 7.64517 0.5 7C0.5 6.35483 1.02267 5.83333 1.66667 5.83333C2.31067 5.83333 2.83333 6.35483 2.83333 7ZM6.25808 5.83333H20.4086C21.0094 5.83333 21.5006 6.3245 21.5006 6.92533V7.07467C21.5006 7.6755 21.0094 8.16667 20.4086 8.16667H6.25808C5.65725 8.16667 5.16725 7.6755 5.16725 7.07467V6.92533C5.16725 6.3245 5.65725 5.83333 6.25808 5.83333ZM20.4086 11.6667H1.59142C0.990583 11.6667 0.500583 12.1578 0.500583 12.7587V12.908C0.500583 13.5088 0.990583 14 1.59142 14H20.4086C21.0094 14 21.5006 13.5088 21.5006 12.908V12.7587C21.5006 12.1578 21.0094 11.6667 20.4086 11.6667Z" fill="#06283D"/>
</svg>
