<svg width="22" height="24" viewBox="0 0 22 24" fill="none" xmlns="http://www.w3.org/2000/svg">
<path fill-rule="evenodd" clip-rule="evenodd" d="M18.8404 13.6383L20.9416 15.743C21.4887 16.2901 21.6497 17.1068 21.3522 17.8231C21.0559 18.5383 20.3652 19.0003 19.5906 19.0003H15.6671V19.3981C15.6671 21.7525 13.5741 23.667 11.0004 23.667C8.42672 23.667 6.33372 21.7525 6.33372 19.3981V19.0003H2.41022C1.63556 19.0003 0.943725 18.5383 0.646225 17.822C0.349891 17.1068 0.512058 16.2913 1.05922 15.743L3.16039 13.6383L3.16156 8.18179C3.16156 5.92546 4.13922 3.77413 5.84722 2.27846C7.54472 0.789794 9.80806 0.10496 12.0504 0.403627C15.9214 0.915794 18.8404 4.36563 18.8404 8.42679V13.6383ZM3.43456 16.667L4.81122 15.288C5.25222 14.847 5.49489 14.2613 5.49489 13.6383V8.18179C5.49489 6.59863 6.18322 5.08546 7.38489 4.03313C8.59589 2.97146 10.1382 2.50479 11.7447 2.71596C14.4596 3.07646 16.5071 5.53113 16.5071 8.42679V13.6383C16.5071 14.2613 16.7497 14.847 17.1896 15.2868L18.5674 16.667H3.43456ZM13.3337 19.3981C13.3337 20.447 12.2651 21.3336 11.0004 21.3336C9.73572 21.3336 8.66706 20.447 8.66706 19.3981V19.0003H13.3337V19.3981Z" fill="#06283D"/>
</svg>
