<svg width="24" height="18" viewBox="0 0 24 18" fill="none" xmlns="http://www.w3.org/2000/svg">
<path d="M16.3636 7.63636C18.1745 7.63636 19.6255 5.93091 19.6255 3.81818C19.6255 1.70545 18.1745 0 16.3636 0C14.5527 0 13.0909 1.70545 13.0909 3.81818C13.0909 5.93091 14.5527 7.63636 16.3636 7.63636ZM7.63636 7.63636C9.44727 7.63636 10.8982 5.93091 10.8982 3.81818C10.8982 1.70545 9.44727 0 7.63636 0C5.82545 0 4.36364 1.70545 4.36364 3.81818C4.36364 5.93091 5.82545 7.63636 7.63636 7.63636ZM7.63636 10.1818C5.09455 10.1818 0 11.6709 0 14.6364V17.8182H15.2727V14.6364C15.2727 11.6709 10.1782 10.1818 7.63636 10.1818ZM16.3636 10.1818C16.0473 10.1818 15.6873 10.2073 15.3055 10.2455C16.5709 11.3145 17.4545 12.7527 17.4545 14.6364V17.8182H24V14.6364C24 11.6709 18.9055 10.1818 16.3636 10.1818Z" fill="#5E849C"/>
</svg>
