<svg width="24" height="24" viewBox="0 0 24 24" fill="none" xmlns="http://www.w3.org/2000/svg">
<path d="M20.397 11.7846C20.397 11.733 20.4008 11.6814 20.4008 11.6252C20.4008 9.34707 18.9233 7.5002 17.1008 7.5002H11.4008V11.6252C11.4008 12.6611 10.7295 13.5002 9.90078 13.5002C9.07203 13.5002 8.40078 12.6611 8.40078 11.6252V6.0002H8.41578C8.56578 4.3127 9.70953 3.0002 11.1008 3.0002H15.3008C15.4058 3.0002 15.5108 3.00957 15.612 3.02363L17.1158 1.14395C17.937 0.117383 19.2645 0.117383 20.0858 1.14395L23.0145 4.80488C23.8358 5.83145 23.8358 7.49082 23.0145 8.51738L20.4008 11.7846H20.397ZM7.20078 6.0002V11.6252C7.20078 13.4908 8.40828 15.0002 9.90078 15.0002C11.3933 15.0002 12.6008 13.4908 12.6008 11.6252V9.00019H17.1008C18.2595 9.00019 19.2008 10.1768 19.2008 11.6252C19.2008 12.9002 18.4733 13.9643 17.5058 14.2033C17.8133 14.6064 18.0008 15.1502 18.0008 15.7502C18.0008 16.9924 17.1945 18.0002 16.2008 18.0002H16.0995C16.167 18.2346 16.2008 18.4877 16.2008 18.7502C16.2008 19.9924 15.3945 21.0002 14.4008 21.0002H8.40078C8.36703 21.0002 8.33328 21.0002 8.29953 20.9955L6.88578 22.7627C6.06453 23.7893 4.73703 23.7893 3.91578 22.7627L0.987031 19.1064C0.165781 18.0799 0.165781 16.4205 0.987031 15.3939L3.60078 12.1268V10.5002C3.60078 8.01582 5.21328 6.0002 7.20078 6.0002Z" fill="#B7E5DD"/>
</svg>
