<svg width="23" height="22" viewBox="0 0 23 22" fill="none" xmlns="http://www.w3.org/2000/svg">
<path fill-rule="evenodd" clip-rule="evenodd" d="M11.5 0C5.425 0 0.5 4.925 0.5 11C0.5 17.075 5.425 22 11.5 22C17.575 22 22.5 17.075 22.5 11C22.5 4.925 17.575 0 11.5 0ZM8.3 13C8.15808 13.0016 8.01822 12.9659 7.89448 12.8964C7.77073 12.8269 7.66745 12.726 7.595 12.604C7.52679 12.4854 7.49427 12.3497 7.50137 12.2131C7.50847 12.0765 7.55487 11.9449 7.635 11.834L10.835 7.334C10.9114 7.22953 11.0115 7.14475 11.1272 7.08667C11.2428 7.02859 11.3706 6.99888 11.5 7C11.768 7 12.017 7.125 12.166 7.334L15.366 11.834C15.4461 11.9449 15.4925 12.0765 15.4996 12.2131C15.5067 12.3497 15.4742 12.4854 15.406 12.604C15.3335 12.7262 15.23 12.8271 15.1061 12.8967C14.9822 12.9662 14.8421 13.0018 14.7 13H8.3Z" fill="#9A86A4"/>
</svg>
