<svg width="18" height="19" viewBox="0 0 18 19" fill="none" xmlns="http://www.w3.org/2000/svg">
<path fill-rule="evenodd" clip-rule="evenodd" d="M14.312 13.397L17.707 16.793C18.098 17.184 18.098 17.816 17.707 18.207C17.512 18.402 17.256 18.5 17 18.5C16.744 18.5 16.488 18.402 16.293 18.207L12.897 14.812C11.543 15.865 9.846 16.5 8 16.5C3.589 16.5 0 12.911 0 8.5C0 4.089 3.589 0.5 8 0.5C12.411 0.5 16 4.089 16 8.5C16 10.346 15.365 12.043 14.312 13.397ZM8 2.5C4.691 2.5 2 5.191 2 8.5C2 11.809 4.691 14.5 8 14.5C11.309 14.5 14 11.809 14 8.5C14 5.191 11.309 2.5 8 2.5Z" fill="#5E849C"/>
</svg>
